<svg xmlns="http://www.w3.org/2000/svg">

<foreignContent id="symbol-01">

<?xml version="1.0" encoding="UTF-8" standalone="no"?>
<svg width="64px" height="64px" viewBox="0 0 64 64" version="1.1" xmlns="http://www.w3.org/2000/svg" xmlns:xlink="http://www.w3.org/1999/xlink" xmlns:sketch="http://www.bohemiancoding.com/sketch/ns">
    <!-- Generator: Sketch 3.0.1 (7597) - http://www.bohemiancoding.com/sketch -->
    <title>01</title>
    <description>Created with Sketch.</description>
    <defs></defs>
    <g id="Symbols-New" stroke="none" stroke-width="1" fill="none" fill-rule="evenodd" sketch:type="MSPage">
        <g id="01" sketch:type="MSArtboardGroup" stroke="#231F1F" stroke-width="2">
            <g id="Stroke-3859-+-Stroke-3860-+-Stroke-3861" sketch:type="MSLayerGroup" transform="translate(2.968547, 2.965462)">
                <path d="M37.8672262,29.4588431 C37.8672262,34.3396491 33.9109399,38.2963558 29.0316536,38.2963558 C24.1513662,38.2963558 20.1960809,34.3396491 20.1960809,29.4588431 C20.1960809,24.578037 24.1513662,20.6233327 29.0316536,20.6233327 C33.9109399,20.6233327 37.8672262,24.578037 37.8672262,29.4588431 L37.8672262,29.4588431 Z" id="Stroke-3859" stroke-linecap="round" sketch:type="MSShapeGroup"></path>
                <path d="M37.6061434,44.7690555 C35.0053256,46.2718431 31.8579156,47.1318662 28.6394286,47.1318662 C18.8788538,47.1318662 10.9032128,39.2204551 10.9032128,29.4588431 C10.9032128,19.6982322 18.7817486,11.7868211 28.5413223,11.7868211 C52.523305,11.7868211 51.506203,38.2963558 41.4092638,38.2963558 C37.6221607,38.2963558 37.8674265,35.7713522 37.8674265,34.5088503 L37.8674265,21.8858345" id="Stroke-3860" stroke-linecap="round" sketch:type="MSShapeGroup"></path>
                <path d="M0,10.5242192 L1.0010846,10.4801668 C3.09335141,10.4801668 5.00542299,12.3934427 5.00542299,14.4849307 C5.00542299,16.5774198 3.09335141,18.4896946 1.0010846,18.4896946 L0,18.4896946 L0,25.4980314 L1.0010846,25.4980314 C3.09335141,25.4980314 5.04947072,27.367255 5.04947072,29.4587429 C5.04947072,31.5512321 3.09335141,33.5075592 1.0010846,33.5075592 L0,33.5075592 L0,40.5158961 L1.0010846,40.5158961 C3.09335141,40.5158961 5.00542299,42.429172 5.00542299,44.52066 C5.00542299,46.6131491 3.09335141,48.5254239 1.0010846,48.5254239 L0,48.5254239 L0,55.5337607 C0,56.929421 1.60874295,58.5373337 3.0032538,58.5373337 L10.010846,58.5373337 L10.010846,57.5361427 C10.010846,55.4446547 11.9229176,53.5313788 14.0151844,53.5313788 C16.1074512,53.5313788 18.0195228,55.4446547 18.0195228,57.5361427 L18.0195228,58.5373337 L25.027115,58.5373337 L25.027115,57.5361427 C25.027115,55.4446547 26.9391866,53.5313788 29.0314534,53.5313788 C31.1237202,53.5313788 33.0357918,55.4446547 33.0357918,57.5361427 L33.0357918,58.5373337 L40.0433839,58.5373337 L40.0433839,57.5361427 C40.0433839,55.4446547 41.9554555,53.5313788 44.0477223,53.5313788 C46.1399892,53.5313788 48.0520607,55.4446547 48.0520607,57.5361427 L48.0520607,58.5373337 L55.0596529,58.5373337 C56.4541638,58.5373337 58.0629067,56.9284198 58.0629067,55.5337607 L58.0629067,48.5254239 L57.0618221,48.5254239 C54.9695553,48.5254239 53.0574837,46.6131491 53.0574837,44.52066 C53.0574837,42.429172 54.9695553,40.5158961 57.0618221,40.5158961 L58.0629067,40.5158961 L58.0629067,33.5075592 L57.0618221,33.5075592 C54.9695553,33.5075592 53.0574837,31.5952845 53.0574837,29.5027953 C53.0574837,27.4113074 54.9695553,25.4980314 57.0618221,25.4980314 L58.0629067,25.4980314 L58.0629067,18.4896946 L57.0618221,18.4896946 C54.9695553,18.4896946 53.0574837,16.5774198 53.0574837,14.4849307 C53.0574837,12.3934427 54.9695553,10.4801668 57.0618221,10.4801668 L58.0629067,10.4801668 L58.0629067,3.47182995 C58.0629067,2.07717092 56.4541638,0.46825702 55.0596529,0.46825702 L48.0520607,0.46825702 L48.0520607,1.469448 C48.0520607,3.56193714 46.1399892,5.4742119 44.0477223,5.4742119 C41.9554555,5.4742119 40.0433839,3.56193714 40.0433839,1.469448 L40.0433839,0.46825702 L33.0357918,0.46825702 L33.0357918,1.469448 C33.0357918,3.56193714 31.1237202,5.4742119 29.0314534,5.4742119 C26.9391866,5.4742119 25.027115,3.56193714 25.027115,1.469448 L25.027115,0.46825702 L18.0195228,0.46825702 L18.0195228,1.469448 C18.0195228,3.56193714 16.1074512,5.4742119 14.0151844,5.4742119 C11.9229176,5.4742119 10.010846,3.56193714 10.010846,1.469448 L10.010846,0.46825702 L3.0032538,0.46825702 C1.60874295,0.46825702 0,2.07717092 0,3.47182995 L0,10.5242192 L0,10.5242192 Z" id="Stroke-3861" stroke-linejoin="round" sketch:type="MSShapeGroup"></path>
            </g>
        </g>
    </g>
</svg>


</foreignContent>
<foreignContent id="symbol-02">


<?xml version="1.0" encoding="UTF-8" standalone="no"?>
<svg width="64px" height="64px" viewBox="0 0 64 64" version="1.1" xmlns="http://www.w3.org/2000/svg" xmlns:xlink="http://www.w3.org/1999/xlink" xmlns:sketch="http://www.bohemiancoding.com/sketch/ns">
    <!-- Generator: Sketch 3.0.1 (7597) - http://www.bohemiancoding.com/sketch -->
    <title>02</title>
    <description>Created with Sketch.</description>
    <defs></defs>
    <g id="Symbols-New" stroke="none" stroke-width="1" fill="none" fill-rule="evenodd" sketch:type="MSPage">
        <g id="02" sketch:type="MSArtboardGroup" stroke="#000000" stroke-width="2" stroke-linecap="round" stroke-linejoin="round">
            <g id="Group" sketch:type="MSLayerGroup" transform="translate(2.968547, 2.965462)">
                <path d="M0,50.527906 L58.0629067,50.527906" id="Stroke-5409" sketch:type="MSShapeGroup"></path>
                <path d="M0,42.5183782 L58.0629067,42.5183782" id="Stroke-5410" sketch:type="MSShapeGroup"></path>
                <path d="M0,34.5088503 L58.0629067,34.5088503" id="Stroke-5411" sketch:type="MSShapeGroup"></path>
                <path d="M24.0260304,42.5183782 L24.0260304,50.527906" id="Stroke-5412" sketch:type="MSShapeGroup"></path>
                <path d="M46.0498915,42.5183782 L46.0498915,50.527906" id="Stroke-5413" sketch:type="MSShapeGroup"></path>
                <path d="M24.0260304,26.4993225 L24.0260304,34.5088503" id="Stroke-5414" sketch:type="MSShapeGroup"></path>
                <path d="M46.0498915,26.4993225 L46.0498915,34.5088503" id="Stroke-5415" sketch:type="MSShapeGroup"></path>
                <path d="M12.0130152,50.527906 L12.0130152,58.5374338" id="Stroke-5416" sketch:type="MSShapeGroup"></path>
                <path d="M34.0368764,50.527906 L34.0368764,58.5374338" id="Stroke-5417" sketch:type="MSShapeGroup"></path>
                <path d="M12.0130152,34.5088503 L12.0130152,42.5183782" id="Stroke-5418" sketch:type="MSShapeGroup"></path>
                <path d="M34.0368764,34.5088503 L34.0368764,42.5183782" id="Stroke-5419" sketch:type="MSShapeGroup"></path>
                <path d="M58.0629067,58.537634 L0,58.537634 L0,26.4995228 L58.0629067,26.4995228 L58.0629067,58.537634 Z" id="Stroke-5420" sketch:type="MSShapeGroup"></path>
                <path d="M44.0477223,21.4933676 C45.9407733,23.3866198 41.0444685,26.4993225 41.0444685,26.4993225" id="Stroke-5421" sketch:type="MSShapeGroup"></path>
                <path d="M14.0151844,21.4933676 C12.1211323,23.3866198 17.0184382,26.4993225 17.0184382,26.4993225" id="Stroke-5422" sketch:type="MSShapeGroup"></path>
                <path d="M49.3718907,26.4993225 C52.5082887,20.7384697 49.8273842,14.7433381 43.0470382,12.4826489 C44.3084048,16.2691531 40.3040664,15.7034802 39.0426998,19.4909857 C40.3040664,6.86696867 28.9878061,9.30586989 34.0372768,0.468357139 C23.3767269,2.25147827 18.5705197,10.5883955 21.023177,20.4921767 C18.5705197,15.6384028 12.7532171,15.5302742 14.0155848,10.4802669 C8.46356963,13.0673444 5.67655011,21.1559663 8.53664881,26.4993225 L49.3718907,26.4993225 L49.3718907,26.4993225 Z" id="Stroke-5423" sketch:type="MSShapeGroup"></path>
                <path d="M34.4973753,26.4993225 C34.3321963,23.4006365 28.9663829,22.8229493 30.032538,17.4886037 C30.032538,17.4886037 25.098192,22.0019727 25.4745998,26.4993225" id="Stroke-5424" sketch:type="MSShapeGroup"></path>
            </g>
        </g>
    </g>
</svg>

</foreignContent>
<foreignContent id="symbol-03">


<?xml version="1.0" encoding="UTF-8" standalone="no"?>
<svg width="64px" height="64px" viewBox="0 0 64 64" version="1.1" xmlns="http://www.w3.org/2000/svg" xmlns:xlink="http://www.w3.org/1999/xlink" xmlns:sketch="http://www.bohemiancoding.com/sketch/ns">
    <!-- Generator: Sketch 3.0.1 (7597) - http://www.bohemiancoding.com/sketch -->
    <title>03</title>
    <description>Created with Sketch.</description>
    <defs></defs>
    <g id="Symbols-New" stroke="none" stroke-width="1" fill="none" fill-rule="evenodd" sketch:type="MSPage">
        <g id="03" sketch:type="MSArtboardGroup" stroke="#000000" stroke-width="2" stroke-linecap="round" stroke-linejoin="round">
            <g id="Group-2" sketch:type="MSLayerGroup" transform="translate(2.968547, 6.970226)">
                <path d="M28.0303688,29.5028955 L0,16.4874128 L0,37.5124233 L28.0303688,50.527906 L28.0303688,29.5028955 L28.0303688,29.5028955 Z" id="Stroke-5399" sketch:type="MSShapeGroup"></path>
                <path d="M58.0629067,16.4874128 L28.0303688,29.5028955 L28.0303688,50.527906 L58.0629067,37.5124233 L58.0629067,16.4874128 L58.0629067,16.4874128 Z" id="Stroke-5400" sketch:type="MSShapeGroup"></path>
                <path d="M36.6041578,18.1416806 C36.6041578,20.2331686 33.2134843,21.9291861 29.0319539,21.9291861 C24.8494225,21.9291861 21.4577478,20.2331686 21.4577478,18.1416806 C21.4577478,16.0511939 24.8494225,14.3541752 29.0319539,14.3541752 C33.2134843,14.3541752 36.6041578,16.0511939 36.6041578,18.1416806 L36.6041578,18.1416806 Z" id="Stroke-5401" sketch:type="MSShapeGroup"></path>
                <path d="M36.6041578,4.25506165 C36.6041578,6.34755079 33.2134843,8.04156592 29.0319539,8.04156592 C24.8494225,8.04156592 21.4577478,6.34755079 21.4577478,4.25506165 C21.4577478,2.16457489 24.8494225,0.468557377 29.0319539,0.468557377 C33.2134843,0.468557377 36.6041578,2.16457489 36.6041578,4.25506165 L36.6041578,4.25506165 Z" id="Stroke-5402" sketch:type="MSShapeGroup"></path>
                <path d="M54.2756035,11.8294719 C54.2756035,13.9209598 50.8849299,15.6169773 46.7033996,15.6169773 C42.519867,15.6169773 39.1291935,13.9209598 39.1291935,11.8294719 C39.1291935,9.7399863 42.519867,8.0419664 46.7033996,8.0419664 C50.8849299,8.0419664 54.2756035,9.7399863 54.2756035,11.8294719 L54.2756035,11.8294719 Z" id="Stroke-5403" sketch:type="MSShapeGroup"></path>
                <path d="M20.1956805,11.8294719 C20.1956805,13.9209598 16.8050069,15.6169773 12.6224755,15.6169773 C8.43994403,15.6169773 5.04826941,13.9209598 5.04826941,11.8294719 C5.04826941,9.7399863 8.43994403,8.0419664 12.6224755,8.0419664 C16.8050069,8.0419664 20.1956805,9.7399863 20.1956805,11.8294719 L20.1956805,11.8294719 Z" id="Stroke-5404" sketch:type="MSShapeGroup"></path>
                <path d="M6.49723926,14.0528167 L0.00020021692,16.4877131" id="Stroke-5405" sketch:type="MSShapeGroup"></path>
                <path d="M23.3191645,6.74041813 L17.8772687,9.10523122" id="Stroke-5406" sketch:type="MSShapeGroup"></path>
                <path d="M40.8821927,9.40769101 L34.7385366,6.73851587" id="Stroke-5407" sketch:type="MSShapeGroup"></path>
                <path d="M58.0629067,16.4874128 L52.2566161,14.354876" id="Stroke-5408" sketch:type="MSShapeGroup"></path>
            </g>
        </g>
    </g>
</svg>

</foreignContent>
<foreignContent id="symbol-04">


<?xml version="1.0" encoding="UTF-8" standalone="no"?>
<svg width="64px" height="64px" viewBox="0 0 64 64" version="1.1" xmlns="http://www.w3.org/2000/svg" xmlns:xlink="http://www.w3.org/1999/xlink" xmlns:sketch="http://www.bohemiancoding.com/sketch/ns">
    <!-- Generator: Sketch 3.0.1 (7597) - http://www.bohemiancoding.com/sketch -->
    <title>04</title>
    <description>Created with Sketch.</description>
    <defs></defs>
    <g id="Symbols-New" stroke="none" stroke-width="1" fill="none" fill-rule="evenodd" sketch:type="MSPage">
        <g id="04" sketch:type="MSArtboardGroup" stroke-linecap="round" stroke="#000000" stroke-width="2">
            <g id="Group-3" sketch:type="MSLayerGroup" transform="translate(2.968547, 2.965462)">
                <path d="M45.0488069,0.468357139 C45.0488069,6.78086625 40.0433839,4.42906864 40.0433839,9.47907593" id="Stroke-5278" stroke-linejoin="round" sketch:type="MSShapeGroup"></path>
                <path d="M51.0553145,0.468357139 C51.0553145,6.78086625 46.0498915,4.42906864 46.0498915,9.47907593" id="Stroke-5279" stroke-linejoin="round" sketch:type="MSShapeGroup"></path>
                <path d="M8.00867679,34.5088503 L8.00867679,58.5374338 L22.0238612,58.5374338 L22.0238612,40.5159962 L36.0390456,40.5159962 L36.0390456,58.5374338 L50.0542299,58.5374338 L50.0542299,34.5088503" id="Stroke-5280" sketch:type="MSShapeGroup"></path>
                <path d="M0,33.5076594 L29.0314534,4.47312105 L58.0629067,33.5076594" id="Stroke-5281" stroke-linejoin="round" sketch:type="MSShapeGroup"></path>
                <path d="M38.0412148,13.4838398 L48.0520607,13.4838398 L48.0520607,23.4957496" id="Stroke-5282" sketch:type="MSShapeGroup"></path>
            </g>
        </g>
    </g>
</svg>


</foreignContent>
<foreignContent id="symbol-05">


<?xml version="1.0" encoding="UTF-8" standalone="no"?>
<svg width="64px" height="64px" viewBox="0 0 64 64" version="1.1" xmlns="http://www.w3.org/2000/svg" xmlns:xlink="http://www.w3.org/1999/xlink" xmlns:sketch="http://www.bohemiancoding.com/sketch/ns">
    <!-- Generator: Sketch 3.0.1 (7597) - http://www.bohemiancoding.com/sketch -->
    <title>05</title>
    <description>Created with Sketch.</description>
    <defs></defs>
    <g id="Symbols-New" stroke="none" stroke-width="1" fill="none" fill-rule="evenodd" sketch:type="MSPage">
        <g id="05" sketch:type="MSArtboardGroup" stroke="#000000" stroke-width="2" stroke-linecap="round" stroke-linejoin="round">
            <g id="Group-4" sketch:type="MSLayerGroup" transform="translate(2.968547, 2.965462)">
                <path d="M58.0629067,0.468357139 L8.00867679,0.468357139 L0,8.47788495 L0,58.5374338 L58.0629067,58.5374338 L58.0629067,0.468357139 L58.0629067,0.468357139 Z" id="Stroke-6688" sketch:type="MSShapeGroup"></path>
                <path d="M48.0520607,12.4828491 L10.010846,12.4828491 L10.010846,0.468557377 L48.0520607,0.468557377 L48.0520607,12.4828491 Z" id="Stroke-6689" sketch:type="MSShapeGroup"></path>
                <path d="M10.010846,58.537634 L48.0520607,58.537634 L48.0520607,50.5281062 L10.010846,50.5281062 L10.010846,58.537634 Z" id="Stroke-6690" sketch:type="MSShapeGroup"></path>
                <path d="M36.0390456,46.5231421 L48.0520607,46.5231421" id="Stroke-6691" sketch:type="MSShapeGroup"></path>
                <path d="M24.0260304,25.4981316 L24.0260304,31.5052774" id="Stroke-6692" sketch:type="MSShapeGroup"></path>
                <path d="M39.0422993,28.5017045 C39.0422993,34.0302811 34.5594425,38.5136142 29.0314534,38.5136142 C23.5024631,38.5136142 19.0206074,34.0302811 19.0206074,28.5017045 C19.0206074,22.9731279 23.5024631,18.4897947 29.0314534,18.4897947 C34.5594425,18.4897947 39.0422993,22.9731279 39.0422993,28.5017045 L39.0422993,28.5017045 Z" id="Stroke-6693" sketch:type="MSShapeGroup"></path>
                <path d="M30.032538,28.5017045 C30.032538,29.0543619 29.5840521,29.5028955 29.0314534,29.5028955 C28.4778536,29.5028955 28.0303688,29.0543619 28.0303688,28.5017045 C28.0303688,27.9490471 28.4778536,27.5005135 29.0314534,27.5005135 C29.5840521,27.5005135 30.032538,27.9490471 30.032538,28.5017045 L30.032538,28.5017045 Z" id="Stroke-6694" sketch:type="MSShapeGroup"></path>
            </g>
        </g>
    </g>
</svg>

</foreignContent>
<foreignContent id="symbol-06">



<?xml version="1.0" encoding="UTF-8" standalone="no"?>
<svg width="64px" height="64px" viewBox="0 0 64 64" version="1.1" xmlns="http://www.w3.org/2000/svg" xmlns:xlink="http://www.w3.org/1999/xlink" xmlns:sketch="http://www.bohemiancoding.com/sketch/ns">
    <!-- Generator: Sketch 3.0.1 (7597) - http://www.bohemiancoding.com/sketch -->
    <title>06</title>
    <description>Created with Sketch.</description>
    <defs></defs>
    <g id="Symbols-New" stroke="none" stroke-width="1" fill="none" fill-rule="evenodd" sketch:type="MSPage">
        <g id="06" sketch:type="MSArtboardGroup" stroke="#231F1F" stroke-width="2">
            <g id="Stroke-2178-+-Stroke-2179-+-Stroke-2180" sketch:type="MSLayerGroup" transform="translate(2.968547, 6.970226)">
                <path d="M58.0629067,0.468357139 L52.0563991,0.468357139 C51.427718,0.468357139 50.4226291,0.929906179 50.3345336,1.55164578 L46.0308709,37.4303256 C45.9427755,38.0520652 45.4101985,38.5136142 44.7805163,38.5136142 L8.00867679,38.5136142 C6.61316486,38.5136142 5.00542299,36.9047004 5.00542299,35.5100413 C5.00542299,34.1153823 6.61316486,32.5064684 8.00867679,32.5064684 L37.0401302,32.5064684 C38.4326388,32.5064684 40.0433839,30.8975545 40.0433839,29.5028955 C40.0433839,28.1082364 38.4326388,26.4993225 37.0401302,26.4993225 L6.00650759,26.4993225 C4.61099566,26.4993225 3.0032538,25.4981316 3.0032538,23.4957496 C3.0032538,22.1010906 4.61099566,20.4921767 6.00650759,20.4921767 L39.0422993,20.4921767 C40.434808,20.4921767 42.0455531,18.8832628 42.0455531,17.4886037 C42.0455531,16.0939447 40.5229035,14.4850308 39.1293937,14.4850308 L3.0032538,14.4850308 C1.60774187,14.4850308 0,12.8761169 0,11.4814579 C0,10.0867989 1.60774187,8.47788495 3.0032538,8.47788495 L43.0466377,8.47788495" id="Stroke-2178" stroke-linecap="round" sketch:type="MSShapeGroup"></path>
                <path d="M45.0488069,46.5231421 C45.0488069,48.7357741 43.2558644,50.527906 41.0444685,50.527906 C38.8330727,50.527906 37.0401302,48.7357741 37.0401302,46.5231421 C37.0401302,44.3125124 38.8330727,42.5183782 41.0444685,42.5183782 C43.2558644,42.5183782 45.0488069,44.3125124 45.0488069,46.5231421 L45.0488069,46.5231421 Z" id="Stroke-2179" sketch:type="MSShapeGroup"></path>
                <path d="M16.0173536,46.5231421 C16.0173536,48.7357741 14.2244111,50.527906 12.0130152,50.527906 C9.80161931,50.527906 8.00867679,48.7357741 8.00867679,46.5231421 C8.00867679,44.3125124 9.80161931,42.5183782 12.0130152,42.5183782 C14.2244111,42.5183782 16.0173536,44.3125124 16.0173536,46.5231421 L16.0173536,46.5231421 Z" id="Stroke-2180" sketch:type="MSShapeGroup"></path>
            </g>
        </g>
    </g>
</svg>

</foreignContent>
<foreignContent id="symbol-07">



<?xml version="1.0" encoding="UTF-8" standalone="no"?>
<svg width="64px" height="64px" viewBox="0 0 64 64" version="1.1" xmlns="http://www.w3.org/2000/svg" xmlns:xlink="http://www.w3.org/1999/xlink" xmlns:sketch="http://www.bohemiancoding.com/sketch/ns">
    <!-- Generator: Sketch 3.0.1 (7597) - http://www.bohemiancoding.com/sketch -->
    <title>07</title>
    <description>Created with Sketch.</description>
    <defs></defs>
    <g id="Symbols-New" stroke="none" stroke-width="1" fill="none" fill-rule="evenodd" sketch:type="MSPage">
        <g id="07" sketch:type="MSArtboardGroup" stroke="#231F1F" stroke-width="2" stroke-linecap="round" stroke-linejoin="round">
            <g id="Group-5" sketch:type="MSLayerGroup" transform="translate(2.968547, 12.977371)">
                <path d="M58.0629067,35.5100413 C58.0629067,37.1620064 56.7114425,38.5136142 55.0596529,38.5136142 L3.0032538,38.5136142 C1.35146421,38.5136142 0,37.1620064 0,35.5100413 L0,3.47193007 C0,1.81996496 1.35146421,0.468357139 3.0032538,0.468357139 L55.0596529,0.468357139 C56.7114425,0.468357139 58.0629067,1.81996496 58.0629067,3.47193007 L58.0629067,35.5100413 L58.0629067,35.5100413 Z" id="Stroke-789" sketch:type="MSShapeGroup"></path>
                <path d="M49.2271338,38.5136142 L8.83537245,38.5136142 L16.4085774,30.5040864 L41.6539289,30.5040864 L49.2271338,38.5136142 L49.2271338,38.5136142 Z" id="Stroke-790" sketch:type="MSShapeGroup"></path>
                <path d="M17.6714457,19.4039822 C17.6714457,22.1922991 15.4109966,24.4539895 12.6219749,24.4539895 C9.83295325,24.4539895 7.57350531,22.1922991 7.57350531,19.4039822 C7.57350531,16.6156653 9.83295325,14.3539749 12.6219749,14.3539749 C15.4109966,14.3539749 17.6714457,16.6156653 17.6714457,19.4039822 L17.6714457,19.4039822 Z" id="Stroke-791" sketch:type="MSShapeGroup"></path>
                <path d="M36.0390456,20.4923769 L22.0238612,20.4923769 L22.0238612,16.487613 L36.0390456,16.487613 L36.0390456,20.4923769 Z" id="Stroke-792" sketch:type="MSShapeGroup"></path>
                <path d="M12.6220751,16.8794792 L12.6220751,14.3544755" id="Stroke-793" sketch:type="MSShapeGroup"></path>
                <path d="M10.0978402,19.4039822 L7.57410597,19.4039822" id="Stroke-794" sketch:type="MSShapeGroup"></path>
                <path d="M12.6220751,21.9283851 L12.6220751,24.4533888" id="Stroke-795" sketch:type="MSShapeGroup"></path>
                <path d="M15.1468104,19.4039822 L17.6715458,19.4039822" id="Stroke-796" sketch:type="MSShapeGroup"></path>
                <path d="M50.4893013,19.4039822 C50.4893013,22.1922991 48.2288523,24.4539895 45.4408317,24.4539895 C42.6508089,24.4539895 40.391361,22.1922991 40.391361,19.4039822 C40.391361,16.6156653 42.6508089,14.3539749 45.4408317,14.3539749 C48.2288523,14.3539749 50.4893013,16.6156653 50.4893013,19.4039822 L50.4893013,19.4039822 Z" id="Stroke-797" sketch:type="MSShapeGroup"></path>
                <path d="M45.4403311,16.8794792 L45.4403311,14.3544755" id="Stroke-798" sketch:type="MSShapeGroup"></path>
                <path d="M42.9160963,19.4039822 L40.391361,19.4039822" id="Stroke-799" sketch:type="MSShapeGroup"></path>
                <path d="M45.4403311,21.9283851 L45.4403311,24.4533888" id="Stroke-800" sketch:type="MSShapeGroup"></path>
                <path d="M47.9650665,19.4039822 L50.4888008,19.4039822" id="Stroke-801" sketch:type="MSShapeGroup"></path>
                <path d="M7.57360542,4.47312105 L50.4891011,4.47312105" id="Stroke-802" sketch:type="MSShapeGroup"></path>
            </g>
        </g>
    </g>
</svg>

</foreignContent>
<foreignContent id="symbol-08">


<?xml version="1.0" encoding="UTF-8" standalone="no"?>
<svg width="64px" height="64px" viewBox="0 0 64 64" version="1.1" xmlns="http://www.w3.org/2000/svg" xmlns:xlink="http://www.w3.org/1999/xlink" xmlns:sketch="http://www.bohemiancoding.com/sketch/ns">
    <!-- Generator: Sketch 3.0.1 (7597) - http://www.bohemiancoding.com/sketch -->
    <title>08</title>
    <description>Created with Sketch.</description>
    <defs></defs>
    <g id="Symbols-New" stroke="none" stroke-width="1" fill="none" fill-rule="evenodd" sketch:type="MSPage">
        <g id="08" sketch:type="MSArtboardGroup" stroke="#231F1F" stroke-width="2" stroke-linecap="round" stroke-linejoin="round">
            <g id="Stroke-843-+-Stroke-844-+-Stroke-845" sketch:type="MSLayerGroup" transform="translate(2.968547, 2.965462)">
                <path d="M58.0629067,29.5028955 C58.0629067,45.5399725 45.0638232,58.5374338 29.0314534,58.5374338 C12.9950792,58.5374338 0,45.5399725 0,29.5028955 C0,13.4668196 12.9950792,0.468357139 29.0314534,0.468357139 C45.0638232,0.468357139 58.0629067,13.4668196 58.0629067,29.5028955 L58.0629067,29.5028955 Z" id="Stroke-843" sketch:type="MSShapeGroup"></path>
                <path d="M40.0433839,40.5161964 L18.0195228,40.5161964 L18.0195228,36.5114325 L40.0433839,36.5114325 L40.0433839,40.5161964 Z" id="Stroke-844" sketch:type="MSShapeGroup"></path>
                <path d="M40.0433839,30.5040864 L29.0314534,18.1413803 L18.0195228,30.5040864 L40.0433839,30.5040864 L40.0433839,30.5040864 Z" id="Stroke-845" sketch:type="MSShapeGroup"></path>
            </g>
        </g>
    </g>
</svg>

</foreignContent>
<foreignContent id="symbol-09">



<?xml version="1.0" encoding="UTF-8" standalone="no"?>
<svg width="64px" height="64px" viewBox="0 0 64 64" version="1.1" xmlns="http://www.w3.org/2000/svg" xmlns:xlink="http://www.w3.org/1999/xlink" xmlns:sketch="http://www.bohemiancoding.com/sketch/ns">
    <!-- Generator: Sketch 3.0.1 (7597) - http://www.bohemiancoding.com/sketch -->
    <title>09</title>
    <description>Created with Sketch.</description>
    <defs></defs>
    <g id="Symbols-New" stroke="none" stroke-width="1" fill="none" fill-rule="evenodd" sketch:type="MSPage">
        <g id="09" sketch:type="MSArtboardGroup" stroke="#231F1F" stroke-width="2" stroke-linejoin="round">
            <g id="Stroke-1544-+-Stroke-1545-+-Stroke-1546" sketch:type="MSLayerGroup" transform="translate(2.968547, 2.965462)">
                <path d="M19.386704,44.1286937 L43.6559979,19.8578221 C47.3319806,21.4126717 51.7367528,20.7018261 54.7350012,17.7032591 C57.7302463,14.7066945 58.4430185,10.4856733 56.8873331,6.81030126 L52.0570999,12.4830493 L46.0495912,12.4830493 L46.0495912,6.10045686 L51.537537,1.26770801 C47.85755,-0.288142763 43.4497745,0.427708785 40.4535283,3.422271 C37.4582832,6.4178344 36.7435088,10.8260783 38.2981932,14.5024515 L14.0329036,38.7733232 C10.357922,37.2174724 5.94914544,37.9313216 2.95390033,40.9288874 C-0.0413447939,43.9244508 -0.757120282,48.3316934 0.799566269,52.0090679 L5.62979946,46.5235425 L12.0127149,46.5235425 L12.0127149,52.5326908 L6.34157061,57.3644384 C10.0195554,58.919288 14.3312268,58.2054389 17.3264719,55.2088743 C20.3237192,52.2133109 20.9433906,47.805067 19.386704,44.1286937 L19.386704,44.1286937 Z" id="Stroke-1544" sketch:type="MSShapeGroup"></path>
                <path d="M28.8417478,23.9580996 L19.3865038,14.502852 C20.9431903,10.8264787 20.229417,6.41823487 17.2321697,3.42167028 C14.2369246,0.427108071 10.0193552,-0.288743478 6.34237148,1.26810849 L12.0125146,6.09985614 L12.0125146,12.4824486 L5.63060033,12.4824486 L0.798364967,6.80970055 C-0.756319414,10.4860738 -0.0415450108,14.8012069 2.95370011,17.7967703 C5.94894523,20.7953373 10.3587229,21.4601281 14.0327034,19.9042773 L23.4889485,29.3384999" id="Stroke-1545" sketch:type="MSShapeGroup"></path>
                <path d="M28.8417478,34.6682399 L38.3009962,44.1314971 C36.7453107,47.8078703 37.458083,52.2131106 40.4563313,55.2106764 C43.4505754,58.207241 47.859352,58.920089 51.5383379,57.3642382 L46.049391,52.5344929 L46.049391,46.5233423 L52.0579008,46.5233423 L56.8901361,52.0088677 C58.4448205,48.3314932 57.7300461,43.9242505 54.734801,40.9286871 C51.7395559,37.9331237 47.3317804,37.2172722 43.6557977,38.7741241 L34.2005537,29.3148718" id="Stroke-1546" sketch:type="MSShapeGroup"></path>
            </g>
        </g>
    </g>
</svg>

</foreignContent>
<foreignContent id="symbol-10">



<?xml version="1.0" encoding="UTF-8" standalone="no"?>
<svg width="64px" height="64px" viewBox="0 0 64 64" version="1.1" xmlns="http://www.w3.org/2000/svg" xmlns:xlink="http://www.w3.org/1999/xlink" xmlns:sketch="http://www.bohemiancoding.com/sketch/ns">
    <!-- Generator: Sketch 3.0.1 (7597) - http://www.bohemiancoding.com/sketch -->
    <title>10</title>
    <description>Created with Sketch.</description>
    <defs></defs>
    <g id="Symbols-New" stroke="none" stroke-width="1" fill="none" fill-rule="evenodd" sketch:type="MSPage">
        <g id="10" sketch:type="MSArtboardGroup" stroke="#000000" stroke-width="2" stroke-linecap="round" stroke-linejoin="round">
            <g id="Group-6" sketch:type="MSLayerGroup" transform="translate(9.976139, 2.965462)">
                <path d="M44.0477223,22.4945586 C44.0477223,10.3300883 34.187039,0.468357139 22.0238612,0.468357139 C9.8606833,0.468357139 0,10.3300883 0,22.4945586 C0,32.2071123 6.28981453,40.4479152 15.016269,43.3743964 L15.016269,46.5231421 L29.0314534,46.5231421 L29.0314534,43.3743964 C37.7579078,40.4479152 44.0477223,32.2071123 44.0477223,22.4945586 L44.0477223,22.4945586 Z" id="Stroke-9029" sketch:type="MSShapeGroup"></path>
                <path d="M15.016269,50.527906 L29.0314534,50.527906" id="Stroke-9030" sketch:type="MSShapeGroup"></path>
                <path d="M15.016269,54.5326699 L29.0314534,54.5326699" id="Stroke-9031" sketch:type="MSShapeGroup"></path>
                <path d="M22.0238612,54.5326699 L22.0238612,58.5374338" id="Stroke-9032" sketch:type="MSShapeGroup"></path>
                <path d="M12.0130152,23.4957496 C10.838743,28.4075925 12.153167,32.4654196 20.3991009,30.5451353 C26.8831258,35.990613 30.7373015,33.9261572 32.0347072,28.5017045 C33.3331139,23.0772518 28.5739577,12.4025536 23.0249458,8.47788495 C20.0347061,15.550298 13.4846095,17.3554453 12.0130152,23.4957496 L12.0130152,23.4957496 Z" id="Stroke-9033" sketch:type="MSShapeGroup"></path>
                <path d="M22.0238612,46.5231421 C22.0238612,46.5231421 17.7712538,25.830527 23.0249458,17.4886037" id="Stroke-9034" sketch:type="MSShapeGroup"></path>
            </g>
        </g>
    </g>
</svg>

</foreignContent>
<foreignContent id="symbol-practice-1-books">


<?xml version="1.0" encoding="UTF-8" standalone="no"?>
<svg width="64px" height="64px" viewBox="0 0 64 64" version="1.1" xmlns="http://www.w3.org/2000/svg" xmlns:xlink="http://www.w3.org/1999/xlink" xmlns:sketch="http://www.bohemiancoding.com/sketch/ns">
    <!-- Generator: Sketch 3.0.1 (7597) - http://www.bohemiancoding.com/sketch -->
    <title>practice-1-books</title>
    <description>Created with Sketch.</description>
    <defs></defs>
    <g id="Symbols-New" stroke="none" stroke-width="1" fill="none" fill-rule="evenodd" sketch:type="MSPage">
        <g id="practice-1-books" sketch:type="MSArtboardGroup" stroke="#886115" stroke-width="2" stroke-linecap="round" stroke-linejoin="round">
            <g id="Group-7" sketch:type="MSLayerGroup" transform="translate(3.000000, 3.000000)">
                <path d="M24.0260304,58.537634 L10.010846,58.537634 L10.010846,0.468557377 L24.0260304,0.468557377 L24.0260304,58.537634 Z" id="Stroke-6926" sketch:type="MSShapeGroup"></path>
                <path d="M38.0412148,58.537634 L24.0260304,58.537634 L24.0260304,20.4923769 L38.0412148,20.4923769 L38.0412148,58.537634 Z" id="Stroke-6927" sketch:type="MSShapeGroup"></path>
                <path d="M28.0303688,54.5326699 L34.0368764,54.5326699" id="Stroke-6928" sketch:type="MSShapeGroup"></path>
                <path d="M16.0173536,6.475503 L16.0173536,38.5136142" id="Stroke-6929" sketch:type="MSShapeGroup"></path>
                <path d="M20.021692,54.5328701 L14.0151844,54.5328701 L14.0151844,42.5185784 L20.021692,42.5185784 L20.021692,54.5328701 Z" id="Stroke-6930" sketch:type="MSShapeGroup"></path>
                <path d="M30.032538,26.4993225 L30.032538,48.525524" id="Stroke-6931" sketch:type="MSShapeGroup"></path>
                <path d="M4.00433839,16.4874128 L4.00433839,50.527906" id="Stroke-6932" sketch:type="MSShapeGroup"></path>
                <path d="M0,58.537634 L10.010846,58.537634 L10.010846,8.47808519 L0,8.47808519 L0,58.537634 Z" id="Stroke-6933" sketch:type="MSShapeGroup"></path>
                <path d="M58.0629067,56.0765064 L51.0553145,58.5374338 L35.037961,10.7826266 L42.0455531,8.32069797 L58.0629067,56.0765064 L58.0629067,56.0765064 Z" id="Stroke-6934" sketch:type="MSShapeGroup"></path>
            </g>
        </g>
    </g>
</svg>

</foreignContent>
<foreignContent id="symbol-practice-2-lecture">



<?xml version="1.0" encoding="UTF-8" standalone="no"?>
<svg width="64px" height="64px" viewBox="0 0 64 64" version="1.1" xmlns="http://www.w3.org/2000/svg" xmlns:xlink="http://www.w3.org/1999/xlink" xmlns:sketch="http://www.bohemiancoding.com/sketch/ns">
    <!-- Generator: Sketch 3.0.1 (7597) - http://www.bohemiancoding.com/sketch -->
    <title>practice-2-lecture</title>
    <description>Created with Sketch.</description>
    <defs></defs>
    <g id="Symbols-New" stroke="none" stroke-width="1" fill="none" fill-rule="evenodd" sketch:type="MSPage">
        <g id="practice-2-lecture" sketch:type="MSArtboardGroup" stroke="#886115" stroke-width="2" stroke-linecap="round" stroke-linejoin="round">
            <g id="Group-9" sketch:type="MSLayerGroup" transform="translate(4.000000, 3.000000)">
                <path d="M33.0357918,8.47788495 L53.0574837,8.47788495 L53.0574837,38.5136142 L3.0032538,38.5136142 L3.0032538,8.47788495 L21.0227766,8.47788495" id="Stroke-4050" sketch:type="MSShapeGroup"></path>
                <path d="M33.0357918,10.4804671 L21.0227766,10.4804671 L21.0227766,6.47570324 L33.0357918,6.47570324 L33.0357918,10.4804671 Z" id="Stroke-4051" sketch:type="MSShapeGroup"></path>
                <path d="M54.0585683,38.5136142 L2.0021692,38.5136142 C0.607658351,38.5136142 0,39.1213372 0,40.5159962 C0,41.9116564 0.607658351,42.5183782 2.0021692,42.5183782 L54.0585683,42.5183782 C55.4530792,42.5183782 56.0607375,41.9116564 56.0607375,40.5159962 C56.0607375,39.1213372 55.4530792,38.5136142 54.0585683,38.5136142 L54.0585683,38.5136142 Z" id="Stroke-4052" sketch:type="MSShapeGroup"></path>
                <path d="M27.0292842,42.5183782 L27.0292842,58.5374338" id="Stroke-4053" sketch:type="MSShapeGroup"></path>
                <path d="M6.83360369,58.5374338 L15.0164692,42.5183782" id="Stroke-4054" sketch:type="MSShapeGroup"></path>
                <path d="M47.2249646,58.5374338 L39.0420991,42.5183782" id="Stroke-4055" sketch:type="MSShapeGroup"></path>
                <path d="M27.0292842,0.468357139 L27.0292842,6.475503" id="Stroke-4056" sketch:type="MSShapeGroup"></path>
            </g>
        </g>
    </g>
</svg>


</foreignContent>
<foreignContent id="symbol-practice-3-research">


<?xml version="1.0" encoding="UTF-8" standalone="no"?>
<svg width="64px" height="64px" viewBox="0 0 64 64" version="1.1" xmlns="http://www.w3.org/2000/svg" xmlns:xlink="http://www.w3.org/1999/xlink" xmlns:sketch="http://www.bohemiancoding.com/sketch/ns">
    <!-- Generator: Sketch 3.0.1 (7597) - http://www.bohemiancoding.com/sketch -->
    <title>practice-3-research</title>
    <description>Created with Sketch.</description>
    <defs></defs>
    <g id="Symbols-New" stroke="none" stroke-width="1" fill="none" fill-rule="evenodd" sketch:type="MSPage">
        <g id="practice-3-research" sketch:type="MSArtboardGroup" stroke="#886115" stroke-width="2" stroke-linecap="round" stroke-linejoin="round">
            <g id="Group-10" sketch:type="MSLayerGroup" transform="translate(3.000000, 5.000000)">
                <path d="M26.0281996,40.5159962 C26.0281996,47.7035462 20.2008861,53.5314789 13.0140998,53.5314789 C5.82531128,53.5314789 0,47.7035462 0,40.5159962 C0,33.327445 5.82531128,27.5005135 13.0140998,27.5005135 C20.2008861,27.5005135 26.0281996,33.327445 26.0281996,40.5159962 L26.0281996,40.5159962 Z" id="Stroke-2948" sketch:type="MSShapeGroup"></path>
                <path d="M26.0281996,11.4814579 L26.0281996,1.46954812 C24.1341475,-0.424705212 19.9125738,-0.424705212 18.0195228,1.46954812 L14.0151844,11.4814579 L10.010846,15.4862218 L2.0021692,33.5076594" id="Stroke-2949" sketch:type="MSShapeGroup"></path>
                <path d="M32.0347072,40.5159962 C32.0347072,47.7035462 37.8600184,53.5314789 45.0488069,53.5314789 C52.2355933,53.5314789 58.0629067,47.7035462 58.0629067,40.5159962 C58.0629067,33.327445 52.2355933,27.5005135 45.0488069,27.5005135 C37.8600184,27.5005135 32.0347072,33.327445 32.0347072,40.5159962 L32.0347072,40.5159962 Z" id="Stroke-2950" sketch:type="MSShapeGroup"></path>
                <path d="M32.0347072,11.4814579 L32.0347072,1.46954812 C33.9277581,-0.424705212 38.4977093,-0.424705212 40.3917614,1.46954812 L44.0477223,11.4814579 L48.0520607,15.4862218 L56.0607375,33.5076594" id="Stroke-2951" sketch:type="MSShapeGroup"></path>
                <path d="M19.0206074,22.4945586 C19.0206074,19.7062418 23.4554121,17.4886037 29.0314534,17.4886037 C34.6074946,17.4886037 39.0422993,19.7062418 39.0422993,22.4945586" id="Stroke-2952" sketch:type="MSShapeGroup"></path>
                <path d="M26.0281996,40.5159962 L26.0281996,17.7138717" id="Stroke-2953" sketch:type="MSShapeGroup"></path>
                <path d="M32.0347072,40.5159962 L32.0347072,17.7138717" id="Stroke-2954" sketch:type="MSShapeGroup"></path>
                <path d="M5.04897017,40.9080626 C5.04897017,36.7250867 8.43964371,33.335054 12.6221752,33.335054" id="Stroke-2955" sketch:type="MSShapeGroup"></path>
                <path d="M37.8672262,40.9080626 C37.8672262,36.7250867 41.2578998,33.335054 45.4404312,33.335054" id="Stroke-2956" sketch:type="MSShapeGroup"></path>
            </g>
        </g>
    </g>
</svg>

</foreignContent>
<foreignContent id="symbol-practice-4-studies">



<?xml version="1.0" encoding="UTF-8" standalone="no"?>
<svg width="64px" height="64px" viewBox="0 0 64 64" version="1.1" xmlns="http://www.w3.org/2000/svg" xmlns:xlink="http://www.w3.org/1999/xlink" xmlns:sketch="http://www.bohemiancoding.com/sketch/ns">
    <!-- Generator: Sketch 3.0.1 (7597) - http://www.bohemiancoding.com/sketch -->
    <title>practice-4-studies</title>
    <description>Created with Sketch.</description>
    <defs></defs>
    <g id="Symbols-New" stroke="none" stroke-width="1" fill="none" fill-rule="evenodd" sketch:type="MSPage">
        <g id="practice-4-studies" sketch:type="MSArtboardGroup" stroke="#886115" stroke-width="2" stroke-linecap="round" stroke-linejoin="round">
            <g id="Group-8" sketch:type="MSLayerGroup" transform="translate(3.000000, 3.000000)">
                <path d="M38.0412148,58.537634 L8.00867679,58.537634 L8.00867679,16.487613 L38.0412148,16.487613 L38.0412148,58.537634 Z" id="Stroke-3963" sketch:type="MSShapeGroup"></path>
                <path d="M8.00867679,40.5159962 L0,40.5159962 L0,8.47788495 C0,4.29290667 3.38967245,0.468357139 7.57320499,0.468357139 C11.7567375,0.468357139 15.016269,4.29290667 15.016269,8.47788495 C15.016269,12.661862 12.1922093,16.4874128 8.00867679,16.4874128 L8.00867679,10.4802669 L14.7850184,10.4802669" id="Stroke-3964" sketch:type="MSShapeGroup"></path>
                <path d="M38.0412148,16.4874128 C42.2247473,16.4874128 46.0498915,12.661862 46.0498915,8.47788495 C46.0498915,4.29290667 42.2247473,0.468357139 38.0412148,0.468357139 L8.00867679,0.468357139" id="Stroke-3965" sketch:type="MSShapeGroup"></path>
                <path d="M23.0249458,26.4993225 L33.0357918,26.4993225" id="Stroke-3966" sketch:type="MSShapeGroup"></path>
                <path d="M23.0249458,36.5112323 L33.0357918,36.5112323" id="Stroke-3967" sketch:type="MSShapeGroup"></path>
                <path d="M23.0249458,46.5231421 L33.0357918,46.5231421" id="Stroke-3968" sketch:type="MSShapeGroup"></path>
                <path d="M13.0140998,24.4969406 L14.0151844,25.4981316 L19.0206074,20.4921767" id="Stroke-3969" sketch:type="MSShapeGroup"></path>
                <path d="M13.0140998,34.5088503 L14.0151844,35.5100413 L19.0206074,30.5040864" id="Stroke-3970" sketch:type="MSShapeGroup"></path>
                <path d="M58.0629067,53.5314789 C58.0629067,56.5350518 56.0607375,58.5374338 54.0585683,58.5374338 C51.9663015,58.5374338 50.0542299,56.6241578 50.0542299,54.5326699 L50.0542299,17.4886037 C50.0542299,16.4874128 51.9663015,14.4850308 54.0585683,14.4850308 C56.1508351,14.4850308 58.0629067,16.4874128 58.0629067,17.4886037 L58.0629067,53.5314789 L58.0629067,53.5314789 Z" id="Stroke-3971" sketch:type="MSShapeGroup"></path>
                <path d="M50.0542299,52.5302879 L58.0629067,52.5302879" id="Stroke-3972" sketch:type="MSShapeGroup"></path>
                <path d="M50.0542299,36.5112323 L58.0629067,36.5112323" id="Stroke-3973" sketch:type="MSShapeGroup"></path>
                <path d="M46.0498915,39.6018087 L46.0498915,21.4932675 C46.0498915,18.4896946 48.0520607,17.4885036 50.0542299,17.4885036" id="Stroke-3974" sketch:type="MSShapeGroup"></path>
            </g>
        </g>
    </g>
</svg>



</foreignContent>
<foreignContent id="symbol-practice-5-reflect">



<?xml version="1.0" encoding="UTF-8" standalone="no"?>
<svg width="64px" height="64px" viewBox="0 0 64 64" version="1.1" xmlns="http://www.w3.org/2000/svg" xmlns:xlink="http://www.w3.org/1999/xlink" xmlns:sketch="http://www.bohemiancoding.com/sketch/ns">
    <!-- Generator: Sketch 3.0.1 (7597) - http://www.bohemiancoding.com/sketch -->
    <title>practice-5-reflect</title>
    <description>Created with Sketch.</description>
    <defs></defs>
    <g id="Symbols-New" stroke="none" stroke-width="1" fill="none" fill-rule="evenodd" sketch:type="MSPage">
        <g id="practice-5-reflect" sketch:type="MSArtboardGroup" stroke="#886115" stroke-width="2" stroke-linecap="round" stroke-linejoin="round">
            <g id="Stroke-1824-+-Stroke-1825" sketch:type="MSLayerGroup" transform="translate(5.000000, 8.000000)">
                <path d="M0,18.4897947 L7.00759219,28.5017045 L16.0173536,18.4897947" id="Stroke-1824" sketch:type="MSShapeGroup"></path>
                <path d="M7.00759219,28.5017045 C5.78126356,12.3434833 16.9583731,0.972957391 30.1947137,0.485377385 C43.4290521,-0.00120142917 54.5571085,10.3350942 55.0426345,23.5718401 C55.5361692,36.8105884 45.1969675,47.9368237 31.9596258,48.4224013" id="Stroke-1825" sketch:type="MSShapeGroup"></path>
            </g>
        </g>
    </g>
</svg>






</foreignContent>
</svg>